<svg id="svg" version="1.1" xmlns="http://www.w3.org/2000/svg" xmlns:xlink="http://www.w3.org/1999/xlink" width="400" height="74.8354747727985" viewBox="0, 0, 400,74.8354747727985"><g id="svgg"><path id="path0" d="M215.500 0.435 C 213.282 1.077,213.153 1.118,211.919 1.584 C 210.471 2.130,210.545 2.013,211.073 2.914 C 211.747 4.064,211.730 5.703,211.008 9.417 C 210.490 12.079,210.169 13.685,210.022 14.351 C 209.828 15.228,209.544 16.695,209.411 17.500 C 209.358 17.821,209.248 18.383,209.167 18.750 C 209.085 19.117,208.973 19.679,208.919 20.000 C 208.864 20.321,208.739 20.883,208.641 21.250 C 208.544 21.617,208.400 22.329,208.323 22.833 C 208.166 23.852,208.095 24.224,207.733 25.917 C 207.596 26.558,207.409 27.528,207.317 28.071 C 207.225 28.614,207.124 29.102,207.091 29.154 C 207.059 29.207,206.991 29.512,206.940 29.833 C 206.888 30.154,206.426 32.517,205.912 35.083 C 205.398 37.650,204.946 39.938,204.908 40.167 C 204.871 40.396,204.728 41.108,204.592 41.750 C 204.456 42.392,204.236 43.479,204.103 44.167 C 203.684 46.327,203.312 48.211,203.083 49.333 C 202.790 50.770,202.526 52.135,202.424 52.750 C 202.378 53.025,202.263 53.625,202.167 54.083 C 202.071 54.542,201.923 55.404,201.838 56.000 C 201.753 56.596,201.591 57.496,201.478 58.000 C 201.126 59.568,201.186 64.252,201.571 65.250 C 202.542 67.766,204.210 69.258,207.417 70.475 C 209.581 71.296,221.200 71.678,224.167 71.026 C 224.579 70.935,225.517 70.818,226.250 70.765 C 226.983 70.712,227.958 70.597,228.417 70.508 C 228.875 70.419,229.475 70.314,229.750 70.274 C 231.130 70.071,233.474 69.635,233.917 69.499 C 234.192 69.415,234.604 69.311,234.833 69.269 C 235.604 69.129,237.246 68.705,237.667 68.538 C 237.896 68.448,238.138 68.361,238.205 68.347 C 238.772 68.225,240.668 67.155,241.182 66.668 C 241.704 66.173,242.833 64.632,242.833 64.416 C 242.833 64.294,242.890 64.169,242.958 64.139 C 243.114 64.070,243.519 63.222,244.019 61.917 C 244.229 61.367,244.470 60.824,244.553 60.710 C 244.748 60.444,244.244 60.231,243.956 60.459 C 243.843 60.549,243.563 60.664,243.333 60.716 C 243.104 60.767,242.467 60.972,241.917 61.171 C 241.367 61.370,240.692 61.597,240.417 61.676 C 240.142 61.755,239.504 61.941,239.000 62.089 C 237.591 62.504,235.095 63.145,234.474 63.253 C 234.167 63.306,233.527 63.450,233.051 63.573 C 232.575 63.696,232.157 63.768,232.123 63.734 C 232.088 63.699,231.465 63.787,230.738 63.928 C 230.011 64.069,228.779 64.222,228.000 64.268 C 227.221 64.314,226.474 64.389,226.340 64.434 C 226.063 64.528,219.636 64.514,219.000 64.418 C 218.771 64.384,218.171 64.309,217.667 64.252 C 217.162 64.196,216.487 64.066,216.167 63.964 C 215.846 63.862,215.429 63.762,215.240 63.741 C 212.166 63.400,210.413 60.506,211.056 56.833 C 211.113 56.512,211.201 55.875,211.253 55.417 C 211.369 54.399,212.029 50.650,212.574 47.917 C 212.702 47.275,212.933 46.112,213.088 45.333 C 213.243 44.554,213.468 43.429,213.589 42.833 C 213.710 42.237,213.932 41.112,214.082 40.333 C 214.232 39.554,214.498 38.242,214.673 37.417 C 214.848 36.592,215.046 35.617,215.113 35.250 C 215.180 34.883,215.244 34.546,215.255 34.500 C 215.267 34.454,215.331 34.117,215.398 33.750 C 215.465 33.383,215.590 32.746,215.675 32.333 C 215.759 31.921,215.860 31.396,215.897 31.167 C 215.935 30.938,216.076 30.300,216.210 29.750 C 216.344 29.200,216.466 28.508,216.479 28.213 C 216.493 27.918,216.581 27.476,216.673 27.232 C 216.766 26.988,216.882 26.517,216.929 26.186 C 217.010 25.630,217.267 24.361,217.677 22.500 C 217.768 22.087,217.870 21.488,217.902 21.167 C 217.935 20.846,218.075 20.133,218.214 19.583 C 218.352 19.033,218.467 18.471,218.469 18.333 C 218.471 18.196,218.899 16.021,219.419 13.500 C 219.940 10.979,220.400 8.692,220.443 8.417 C 220.486 8.142,220.593 7.641,220.681 7.303 C 220.768 6.966,220.884 6.366,220.939 5.970 C 220.993 5.574,221.136 4.776,221.257 4.197 C 222.026 0.495,219.959 -0.855,215.500 0.435 M312.750 3.752 C 312.108 3.868,311.171 4.002,310.667 4.050 C 310.162 4.099,309.375 4.218,308.917 4.316 C 308.458 4.413,307.773 4.527,307.394 4.568 C 307.015 4.610,306.378 4.733,305.977 4.841 C 305.577 4.950,305.025 5.059,304.750 5.083 C 304.475 5.107,303.275 5.323,302.083 5.562 C 300.892 5.801,299.586 6.038,299.181 6.087 C 298.777 6.137,298.102 6.257,297.681 6.354 C 296.739 6.572,296.549 6.598,294.167 6.828 C 293.112 6.929,291.997 7.044,291.689 7.082 C 290.870 7.184,288.440 6.721,287.744 6.330 C 286.814 5.808,286.658 6.208,287.060 8.084 C 287.859 11.813,289.228 12.856,293.417 12.930 C 295.603 12.968,296.728 12.891,299.579 12.509 C 300.971 12.322,300.883 12.258,300.607 13.263 C 300.405 14.001,300.081 15.552,299.898 16.667 C 299.860 16.896,299.753 17.421,299.660 17.833 C 299.567 18.246,299.459 18.846,299.420 19.167 C 299.382 19.487,299.237 20.237,299.099 20.833 C 298.962 21.429,298.727 22.554,298.577 23.333 C 298.428 24.113,298.238 25.062,298.154 25.442 C 298.071 25.823,297.960 26.423,297.907 26.776 C 297.855 27.128,297.740 27.693,297.652 28.030 C 297.565 28.367,297.452 28.967,297.400 29.363 C 297.349 29.759,297.230 30.383,297.134 30.750 C 297.039 31.117,296.930 31.642,296.892 31.917 C 296.854 32.192,296.719 32.867,296.590 33.417 C 296.462 33.967,296.233 35.054,296.082 35.833 C 295.930 36.612,295.699 37.793,295.567 38.458 C 295.436 39.122,295.222 40.209,295.091 40.874 C 294.961 41.539,294.761 42.533,294.647 43.083 C 294.534 43.633,294.416 44.233,294.385 44.417 C 294.309 44.871,293.118 50.879,292.583 53.500 C 292.462 54.096,292.237 55.221,292.084 56.000 C 291.727 57.821,291.364 59.634,291.084 61.000 C 290.692 62.914,290.337 64.741,290.292 65.077 C 290.186 65.860,283.138 66.278,281.000 65.627 C 280.496 65.474,280.039 65.364,279.984 65.382 C 279.929 65.401,279.779 65.329,279.649 65.221 C 279.363 64.984,277.958 64.486,277.857 64.587 C 277.818 64.627,277.879 65.242,277.993 65.955 C 278.108 66.667,278.226 67.418,278.256 67.624 C 278.899 72.030,281.625 73.212,289.139 72.346 C 290.583 72.179,291.073 72.111,292.167 71.923 C 292.396 71.883,293.087 71.805,293.702 71.749 C 294.317 71.693,295.066 71.577,295.367 71.490 C 295.668 71.404,296.225 71.333,296.605 71.333 C 296.986 71.333,297.886 71.223,298.607 71.088 C 299.327 70.953,300.292 70.809,300.750 70.767 C 301.208 70.726,302.071 70.616,302.667 70.523 C 303.262 70.430,304.462 70.304,305.333 70.243 C 306.204 70.182,306.972 70.099,307.039 70.058 C 307.651 69.687,313.723 70.159,315.833 70.743 C 316.337 70.882,316.769 70.997,316.792 70.998 C 317.139 71.014,316.480 67.109,315.949 66.000 C 314.665 63.318,311.742 62.595,305.500 63.417 C 304.629 63.532,303.317 63.679,302.583 63.744 C 301.850 63.809,300.934 63.920,300.548 63.992 C 299.687 64.151,299.644 64.062,299.957 62.750 C 300.088 62.200,300.228 61.525,300.268 61.250 C 300.348 60.701,300.715 58.857,301.082 57.167 C 301.211 56.571,301.349 55.858,301.388 55.583 C 301.504 54.768,302.389 50.361,303.012 47.500 C 303.122 46.996,303.267 46.208,303.335 45.750 C 303.403 45.292,303.577 44.429,303.722 43.833 C 304.083 42.350,304.871 38.371,304.934 37.712 C 304.962 37.415,305.072 36.853,305.179 36.462 C 305.285 36.070,305.406 35.525,305.447 35.250 C 305.488 34.975,305.587 34.487,305.668 34.167 C 305.748 33.846,305.859 33.246,305.915 32.833 C 305.970 32.421,306.082 31.858,306.163 31.583 C 306.244 31.308,306.360 30.746,306.420 30.333 C 306.481 29.921,306.630 29.133,306.752 28.583 C 307.171 26.694,307.390 25.583,307.426 25.167 C 307.446 24.938,307.576 24.262,307.715 23.667 C 308.036 22.290,308.304 20.935,308.424 20.083 C 308.476 19.717,308.591 19.184,308.681 18.900 C 308.770 18.615,308.874 18.138,308.912 17.839 C 308.950 17.540,309.094 16.760,309.233 16.106 C 309.601 14.377,309.968 12.509,310.082 11.793 C 310.157 11.325,310.273 11.151,310.549 11.096 C 314.845 10.239,321.104 10.133,323.156 10.882 C 323.981 11.184,324.433 11.275,324.506 11.157 C 324.722 10.808,323.868 7.713,323.222 6.500 C 322.819 5.745,321.079 4.001,320.727 4.000 C 320.623 4.000,320.330 3.892,320.077 3.761 C 319.483 3.452,314.446 3.447,312.750 3.752 M35.831 4.888 C 35.784 4.937,35.176 5.012,34.479 5.055 C 32.127 5.199,27.540 6.377,25.167 7.446 C 23.222 8.322,21.324 9.281,20.720 9.692 C 20.337 9.953,19.983 10.167,19.934 10.167 C 19.885 10.167,19.552 10.373,19.194 10.625 C 16.212 12.723,16.098 12.815,14.101 14.706 C 13.450 15.324,12.860 15.830,12.792 15.831 C 12.723 15.832,12.667 15.914,12.667 16.012 C 12.667 16.111,12.361 16.466,11.987 16.801 C 11.613 17.137,10.882 17.937,10.362 18.580 C 9.842 19.222,9.294 19.885,9.143 20.052 C 6.872 22.582,4.251 27.380,2.252 32.667 C 1.883 33.642,1.447 35.260,0.849 37.876 C -0.254 42.695,-0.310 51.095,0.736 54.917 C 0.761 55.008,0.837 55.308,0.906 55.583 C 1.094 56.338,1.648 57.971,1.827 58.296 C 1.913 58.454,2.235 59.108,2.542 59.750 C 4.830 64.538,10.561 69.326,15.099 70.240 C 15.274 70.275,15.610 70.379,15.847 70.470 C 16.084 70.562,16.534 70.678,16.847 70.728 C 17.160 70.779,17.942 70.932,18.583 71.069 C 20.164 71.408,27.244 71.407,29.017 71.069 C 29.695 70.939,30.475 70.808,30.750 70.777 C 33.624 70.453,39.430 68.305,43.250 66.153 C 43.892 65.791,44.660 65.370,44.958 65.217 C 45.256 65.064,45.500 64.877,45.500 64.802 C 45.500 64.728,45.578 64.667,45.673 64.667 C 45.871 64.667,46.888 63.981,46.972 63.792 C 47.003 63.723,47.128 63.667,47.250 63.667 C 47.372 63.667,47.497 63.610,47.528 63.542 C 47.558 63.473,47.955 63.118,48.409 62.753 C 51.789 60.034,53.890 55.678,52.728 53.798 C 52.682 53.723,52.607 53.456,52.562 53.206 C 52.308 51.783,52.189 51.823,49.872 54.131 C 48.702 55.296,47.521 56.436,47.247 56.664 C 45.683 57.965,44.187 59.100,43.281 59.674 C 42.714 60.033,42.175 60.388,42.083 60.463 C 41.731 60.751,39.037 62.127,38.083 62.505 C 37.533 62.723,36.997 62.964,36.892 63.040 C 36.787 63.117,36.540 63.210,36.343 63.248 C 36.146 63.286,35.745 63.394,35.451 63.487 C 33.838 64.001,33.124 64.196,32.631 64.258 C 32.330 64.296,31.675 64.412,31.176 64.516 C 29.831 64.794,25.131 64.821,23.921 64.557 C 23.369 64.436,22.655 64.292,22.334 64.235 C 22.014 64.179,21.549 64.028,21.301 63.900 C 21.053 63.772,20.773 63.667,20.679 63.667 C 19.387 63.667,15.277 60.507,13.806 58.382 C 10.726 53.934,9.352 46.638,10.322 39.893 C 10.417 39.238,10.539 38.300,10.594 37.809 C 10.649 37.318,10.761 36.654,10.842 36.333 C 10.923 36.012,11.034 35.450,11.089 35.083 C 11.197 34.359,11.525 33.153,12.040 31.583 C 12.221 31.033,12.387 30.508,12.409 30.417 C 12.462 30.198,12.660 29.666,12.844 29.250 C 12.925 29.067,13.149 28.504,13.342 28.000 C 13.773 26.875,15.119 24.167,15.722 23.212 C 15.966 22.824,16.167 22.436,16.167 22.351 C 16.167 22.265,16.223 22.169,16.292 22.139 C 16.434 22.076,17.167 21.059,17.167 20.925 C 17.167 20.877,17.274 20.705,17.405 20.544 C 17.536 20.382,18.092 19.650,18.640 18.917 C 19.777 17.396,22.223 14.828,23.333 13.991 C 23.746 13.680,24.121 13.381,24.167 13.327 C 24.337 13.125,25.918 12.096,25.941 12.172 C 25.954 12.215,26.104 12.134,26.274 11.992 C 27.021 11.369,29.663 10.218,31.167 9.862 C 34.971 8.959,38.208 9.120,41.500 10.373 C 43.516 11.141,45.911 12.996,47.583 15.084 C 47.950 15.542,48.289 15.954,48.337 16.000 C 48.577 16.229,49.253 17.344,49.907 18.587 C 50.548 19.804,50.497 19.798,51.437 18.781 C 53.087 16.998,53.689 16.081,54.232 14.529 C 54.589 13.509,54.541 11.534,54.147 11.060 C 54.021 10.907,53.937 10.755,53.962 10.723 C 54.159 10.462,52.125 8.167,51.697 8.167 C 51.604 8.167,51.503 8.110,51.472 8.042 C 51.367 7.804,48.348 6.225,47.750 6.094 C 47.658 6.074,47.246 5.964,46.833 5.850 C 45.003 5.342,44.491 5.226,43.333 5.059 C 42.471 4.934,35.931 4.785,35.831 4.888 M136.333 4.876 C 136.287 4.921,135.800 5.002,135.250 5.055 C 134.700 5.109,133.837 5.273,133.333 5.420 C 132.136 5.769,130.567 6.299,130.204 6.477 C 130.046 6.554,129.617 6.758,129.250 6.930 C 126.845 8.059,124.340 10.081,122.000 12.783 C 121.283 13.611,121.206 13.653,120.250 13.740 C 115.541 14.170,108.862 16.325,107.196 17.952 C 107.075 18.070,106.912 18.167,106.833 18.167 C 106.755 18.167,106.591 18.263,106.470 18.381 C 106.349 18.499,105.987 18.759,105.667 18.958 C 105.346 19.157,104.884 19.492,104.640 19.702 C 104.396 19.912,103.873 20.346,103.478 20.667 C 102.412 21.533,100.080 23.917,99.474 24.761 C 99.182 25.168,98.881 25.500,98.805 25.500 C 98.729 25.500,98.667 25.606,98.667 25.736 C 98.667 25.866,98.604 25.997,98.528 26.028 C 98.029 26.228,94.676 32.000,94.669 32.671 C 94.668 32.811,94.570 33.074,94.452 33.255 C 94.073 33.837,93.509 35.764,92.835 38.780 C 92.064 42.230,92.342 49.765,93.360 53.000 C 93.780 54.332,94.232 55.609,94.423 56.000 C 94.535 56.229,94.799 56.810,95.009 57.292 C 95.219 57.773,95.452 58.167,95.528 58.167 C 95.604 58.167,95.667 58.264,95.667 58.383 C 95.667 58.502,96.004 59.113,96.417 59.741 C 96.829 60.369,97.167 60.940,97.167 61.011 C 97.167 61.081,97.223 61.164,97.292 61.194 C 97.360 61.225,97.714 61.625,98.077 62.083 C 100.629 65.300,105.480 68.769,109.000 69.893 C 116.175 72.183,125.055 71.805,131.917 68.918 C 133.108 68.416,136.748 66.615,136.837 66.483 C 136.884 66.412,137.109 66.273,137.337 66.175 C 137.564 66.076,137.975 65.847,138.250 65.666 C 138.525 65.485,138.919 65.249,139.125 65.142 C 139.331 65.034,139.500 64.884,139.500 64.807 C 139.500 64.730,139.584 64.667,139.687 64.667 C 139.970 64.667,143.236 62.096,145.086 60.417 C 145.490 60.050,145.918 59.666,146.036 59.563 C 146.596 59.076,149.667 55.820,149.671 55.709 C 149.674 55.640,149.980 55.251,150.353 54.844 C 151.332 53.776,153.167 51.398,153.167 51.198 C 153.167 51.105,153.223 51.003,153.292 50.972 C 153.452 50.901,154.167 49.885,154.167 49.728 C 154.167 49.663,154.270 49.491,154.396 49.346 C 154.823 48.857,156.852 44.992,157.510 43.417 C 158.423 41.227,159.599 37.281,159.768 35.833 C 159.795 35.604,159.928 34.779,160.064 34.000 C 160.409 32.013,160.428 25.874,160.094 24.083 C 159.958 23.350,159.811 22.563,159.769 22.333 C 159.140 18.895,157.504 15.476,154.921 12.200 C 152.358 8.951,148.339 6.409,144.010 5.300 C 142.814 4.994,136.566 4.649,136.333 4.876 M384.000 5.020 C 377.840 5.729,371.229 9.316,368.526 13.417 C 368.284 13.783,368.040 14.121,367.983 14.167 C 367.743 14.361,366.672 16.529,366.283 17.608 C 364.891 21.466,364.937 25.596,366.410 28.917 C 366.613 29.375,366.885 29.994,367.014 30.292 C 367.143 30.590,367.305 30.833,367.374 30.833 C 367.443 30.833,367.500 30.940,367.500 31.071 C 367.500 31.202,367.596 31.409,367.714 31.530 C 367.832 31.651,368.127 32.087,368.371 32.500 C 368.615 32.912,368.987 33.450,369.199 33.695 C 369.410 33.940,369.733 34.350,369.917 34.606 C 370.344 35.205,372.237 37.209,373.811 38.730 C 375.046 39.923,375.260 40.126,377.519 42.231 C 379.804 44.360,382.747 47.277,383.356 48.016 C 383.688 48.420,384.152 48.955,384.386 49.205 C 384.620 49.455,385.022 49.943,385.280 50.288 C 385.537 50.634,385.795 50.954,385.852 51.000 C 385.910 51.046,386.269 51.594,386.650 52.219 C 388.448 55.166,388.929 56.903,388.598 59.250 C 388.533 59.708,388.473 60.158,388.464 60.250 C 388.306 61.929,385.649 65.314,383.167 67.000 C 378.598 70.103,371.408 70.605,366.845 68.139 C 366.280 67.833,365.616 67.477,365.370 67.348 C 364.306 66.786,361.500 63.535,361.500 62.864 C 361.500 62.792,361.412 62.646,361.305 62.539 C 360.681 61.914,359.667 57.526,359.667 55.450 C 359.667 54.724,359.538 54.689,358.932 55.250 C 358.685 55.479,358.430 55.667,358.366 55.668 C 358.222 55.670,355.167 58.736,355.167 58.879 C 355.167 58.936,354.934 59.328,354.649 59.750 C 353.490 61.468,353.377 64.490,354.398 66.465 C 354.550 66.757,354.682 67.054,354.693 67.123 C 354.731 67.376,355.089 68.091,355.333 68.401 C 355.906 69.129,356.767 70.096,357.000 70.273 C 357.137 70.378,357.482 70.686,357.766 70.959 C 358.600 71.759,362.438 73.833,363.084 73.833 C 363.233 73.833,363.506 73.914,363.691 74.013 C 365.246 74.845,373.031 75.131,376.500 74.483 C 378.505 74.108,380.497 73.576,381.917 73.036 C 384.374 72.101,387.545 70.239,388.934 68.916 C 389.126 68.733,389.651 68.240,390.100 67.820 C 390.976 67.001,392.333 65.530,392.333 65.399 C 392.333 65.355,392.480 65.162,392.658 64.971 C 392.837 64.779,393.102 64.372,393.246 64.068 C 393.391 63.763,393.580 63.470,393.666 63.417 C 394.051 63.179,395.240 60.080,395.648 58.250 C 396.119 56.137,396.217 52.153,395.824 51.083 C 395.672 50.669,395.253 49.280,395.246 49.167 C 395.217 48.655,393.015 44.512,392.500 44.000 C 392.454 43.954,392.126 43.485,391.771 42.958 C 391.416 42.431,391.060 42.000,390.980 42.000 C 390.899 42.000,390.833 41.925,390.833 41.833 C 390.833 41.742,390.702 41.532,390.542 41.367 C 390.381 41.202,390.002 40.771,389.698 40.409 C 388.837 39.380,386.831 37.347,385.338 35.988 C 384.590 35.307,383.541 34.337,383.008 33.833 C 382.475 33.329,381.308 32.242,380.413 31.417 C 375.601 26.976,374.007 25.132,373.572 23.500 C 373.014 21.406,373.258 17.644,374.011 16.737 C 374.119 16.607,374.159 16.500,374.099 16.500 C 373.945 16.500,374.442 15.580,375.129 14.595 C 379.241 8.706,389.405 7.758,394.583 12.781 C 395.298 13.474,396.434 14.763,396.561 15.026 C 397.414 16.790,397.624 16.870,398.348 15.708 C 399.916 13.194,400.445 10.440,399.642 8.973 C 398.872 7.567,396.404 5.889,394.652 5.581 C 394.355 5.528,394.043 5.443,393.958 5.391 C 393.212 4.930,386.848 4.693,384.000 5.020 M139.000 12.427 C 140.659 12.818,142.282 13.441,142.667 13.836 C 142.712 13.883,143.183 14.215,143.712 14.574 C 144.547 15.141,146.667 17.180,146.667 17.417 C 146.667 17.463,146.798 17.645,146.958 17.821 C 147.469 18.384,147.667 18.649,147.667 18.772 C 147.667 18.837,147.772 19.009,147.900 19.154 C 149.958 21.478,151.716 30.261,150.933 34.313 C 150.886 34.554,150.803 35.313,150.747 36.000 C 150.692 36.688,150.579 37.475,150.497 37.750 C 150.414 38.025,150.314 38.556,150.274 38.929 C 150.155 40.052,149.155 43.375,148.323 45.417 C 147.052 48.537,143.987 53.863,143.304 54.139 C 143.229 54.169,143.167 54.294,143.167 54.417 C 143.167 54.539,143.110 54.664,143.042 54.694 C 142.973 54.725,142.508 55.237,142.008 55.833 C 140.991 57.046,137.522 60.500,137.320 60.500 C 137.249 60.500,137.091 60.594,136.970 60.709 C 136.432 61.220,133.931 62.808,132.750 63.389 C 127.417 66.016,121.433 66.411,115.917 64.500 C 114.247 63.922,112.762 63.233,112.496 62.912 C 112.384 62.777,112.221 62.667,112.134 62.667 C 111.635 62.667,106.667 58.182,106.667 57.732 C 106.667 57.696,106.412 57.311,106.100 56.875 C 104.646 54.844,102.420 49.876,102.629 49.131 C 102.648 49.065,102.592 48.825,102.505 48.596 C 101.487 45.920,101.749 36.887,102.935 33.771 C 103.070 33.416,103.143 33.088,103.097 33.042 C 103.052 32.996,103.163 32.668,103.344 32.313 C 103.525 31.957,103.630 31.667,103.576 31.667 C 103.522 31.667,103.621 31.385,103.796 31.042 C 103.970 30.698,104.253 30.117,104.425 29.750 C 104.907 28.718,106.668 25.932,106.931 25.783 C 107.061 25.710,107.167 25.560,107.169 25.450 C 107.173 24.991,111.475 21.167,111.987 21.167 C 112.086 21.167,112.167 21.110,112.168 21.042 C 112.171 20.691,117.541 18.486,117.789 18.733 C 117.844 18.789,117.801 19.002,117.692 19.209 C 117.584 19.415,117.427 19.808,117.343 20.083 C 117.260 20.358,117.036 20.996,116.845 21.500 C 114.315 28.183,115.051 35.436,118.417 36.989 C 119.416 37.450,120.400 37.847,120.674 37.898 C 120.807 37.923,121.240 38.036,121.635 38.148 C 123.449 38.662,123.555 38.588,122.863 37.295 C 119.139 30.345,121.381 20.038,127.628 15.382 C 127.970 15.127,128.310 14.824,128.383 14.709 C 128.457 14.594,128.619 14.500,128.744 14.500 C 128.870 14.500,128.997 14.435,129.028 14.355 C 129.083 14.211,130.545 13.483,131.667 13.042 C 133.851 12.182,136.882 11.928,139.000 12.427 " stroke="none" fill="#ec1c74" fill-rule="evenodd"></path><path id="path1" d="M26.877 64.786 C 27.131 64.825,27.506 64.824,27.711 64.784 C 27.916 64.744,27.708 64.713,27.250 64.714 C 26.792 64.716,26.624 64.748,26.877 64.786 " stroke="none" fill="#f01c74" fill-rule="evenodd"></path><path id="path2" d="M26.877 64.786 C 27.131 64.825,27.506 64.824,27.711 64.784 C 27.916 64.744,27.708 64.713,27.250 64.714 C 26.792 64.716,26.624 64.748,26.877 64.786 " stroke="none" fill="#f01c74" fill-rule="evenodd"></path><path id="path3" d="M26.877 64.786 C 27.131 64.825,27.506 64.824,27.711 64.784 C 27.916 64.744,27.708 64.713,27.250 64.714 C 26.792 64.716,26.624 64.748,26.877 64.786 " stroke="none" fill="#f01c74" fill-rule="evenodd"></path><path id="path4" d="M26.877 64.786 C 27.131 64.825,27.506 64.824,27.711 64.784 C 27.916 64.744,27.708 64.713,27.250 64.714 C 26.792 64.716,26.624 64.748,26.877 64.786 " stroke="none" fill="#f01c74" fill-rule="evenodd"></path></g></svg>